<svg xmlns="http://www.w3.org/2000/svg" viewBox="0 0 431.05 362.88"><defs><style>.cls-1{fill:red;fill-rule:evenodd;}</style></defs><g id="Layer_2" data-name="Layer 2"><g id="Layer_1-2" data-name="Layer 1"><g id="Layer_4" data-name="Layer 4"><path class="cls-1" d="M215.53,62.19c.63-1.07,6-9.25,8.18-12.18C270.3-12.77,351.9-10.73,393.92,24.68c44.59,37.59,54.2,119.35,0,187.91C353.06,264.27,295.4,289.2,228,351.13c-4.57,4.2-12.5,11.75-12.5,11.75s-7.7-7.34-12.51-11.75C135.65,289.2,78,264.27,37.13,212.59-17.07,144-7.46,62.27,37.13,24.68c42.12-35.5,124-37.46,170.56,25.8C209.74,53.27,214.89,61.11,215.53,62.19Z"/></g></g></g></svg>