<svg xmlns="http://www.w3.org/2000/svg" viewBox="0 0 384.66 390.46"><defs><style>.cls-1{fill-rule:evenodd;}</style></defs><g id="Layer_2" data-name="Layer 2"><g id="Layer_1-2" data-name="Layer 1"><g id="Layer_3" data-name="Layer 3"><path class="cls-1" d="M177,289c-42.39,45.94-108.66,42.5-143.83,12.85-39.8-33.53-48.37-106.5,0-167.68C69.6,88,121.05,65.75,181.17,10.49,185.25,6.74,192.33,0,192.33,0s6.87,6.55,11.16,10.49c60.12,55.26,111.57,77.51,148,123.63,48.38,61.18,39.8,134.15,0,167.68C316.35,331.45,250.08,334.89,207.69,289c5.78,17.18,18.4,43.63,27.67,53.37,14.52,15.26,45.22,27.95,45.22,27.95v20.19H104.08V370.27s30.71-12.69,45.22-27.95C158.57,332.58,171.19,306.13,177,289Z"/></g></g></g></svg>